<svg width="28" height="28" viewBox="0 0 28 28" fill="none" xmlns="http://www.w3.org/2000/svg">
<path d="M3.61064 18.6555C3.8315 19.147 3.61213 19.7244 3.12066 19.9453C2.62919 20.1661 2.05173 19.9468 1.83087 19.4553C1.06699 17.7554 0.666656 15.9046 0.666656 14C0.666656 6.63631 6.63634 0.666626 14 0.666626C21.3636 0.666626 27.3333 6.63631 27.3333 14C27.3333 21.3636 21.3636 27.3333 14 27.3333C10.8712 27.3333 7.90629 26.2507 5.53688 24.3041C5.12055 23.962 5.06034 23.3472 5.40238 22.9309C5.74443 22.5146 6.35921 22.4544 6.77553 22.7964C8.79911 24.4589 11.3273 25.3821 14 25.3821C20.286 25.3821 25.3821 20.286 25.3821 14C25.3821 7.71394 20.286 2.61785 14 2.61785C7.71397 2.61785 2.61788 7.71394 2.61788 14C2.61788 15.6277 2.95928 17.206 3.61064 18.6555Z" fill="#FF0366"/>
</svg>
